<?xml version="1.0" encoding="UTF-8"?>
<svg width="16px" height="16px" viewBox="0 0 16 16" version="1.1" xmlns="http://www.w3.org/2000/svg" xmlns:xlink="http://www.w3.org/1999/xlink">
    <!-- Generator: Sketch 45.2 (43514) - http://www.bohemiancoding.com/sketch -->
    <title>退出</title>
    <desc>Created with Sketch.</desc>
    <defs></defs>
    <g id="后台首页" stroke="none" stroke-width="1" fill="none" fill-rule="evenodd">
        <g transform="translate(-1181.000000, -19.000000)" id="退出" fill-rule="nonzero" fill="#219FFF">
            <g transform="translate(1181.000000, 19.000000)">
                <g id="Group" transform="translate(0.216927, 0.015495)">
                    <path d="M15.3163072,7.65123516 L14.7829919,7.1179819 L11.5838443,3.91864831 C11.4364888,3.77146328 11.1979,3.77146328 11.0507615,3.91864831 L10.5174617,4.45194805 C10.3700908,4.59914857 10.3700908,4.83790781 10.5174617,4.98503086 L11.0507615,5.51839258 L11.0507615,5.51850104 L12.6959674,7.16375352 L5.28459167,7.16375352 L5.28459167,8.67192357 L12.695952,8.67192357 L11.050746,10.317269 L10.5174462,10.8505688 C10.3700753,10.9977073 10.3700753,11.2364046 10.5174462,11.38376 L11.050746,11.9168428 C11.1978845,12.0641983 11.4364888,12.0641983 11.5838288,11.9168428 L12.1171285,11.38376 L12.1171285,11.3836516 L14.7829919,8.71777266 L14.7829919,8.71767969 L15.3163072,8.18436445 C15.4636626,8.0372569 15.4636626,7.79843568 15.3163072,7.65123516 L15.3163072,7.65123516 Z M9.43206706,14.3275535 L1.51416654,14.3275535 L1.51416654,1.50812357 L9.43206706,1.50812357 C9.6401776,1.50812357 9.80894688,1.3393388 9.80894688,1.13111979 L9.80894688,0.377003776 C9.80894688,0.168893229 9.64016211,0 9.43206706,0 L1.51416654,0 C0.681228516,0 0.00599648438,0.675247526 0.00599648438,1.50812357 L0.00599648438,14.3275535 C0.00599648438,15.1604296 0.681228516,15.8356771 1.51416654,15.8356771 L9.43206706,15.8356771 C9.6401776,15.8356771 9.80894688,15.6668923 9.80894688,15.4586733 L9.80894688,14.7045573 C9.80894688,14.4963538 9.64016211,14.3275535 9.43206706,14.3275535 Z" id="Shape"></path>
                </g>
            </g>
        </g>
    </g>
</svg>