<?xml version="1.0" standalone="no"?><!DOCTYPE svg PUBLIC "-//W3C//DTD SVG 1.1//EN" "http://www.w3.org/Graphics/SVG/1.1/DTD/svg11.dtd"><svg t="1501147285139" class="icon" style="" viewBox="0 0 1024 1024" version="1.1" xmlns="http://www.w3.org/2000/svg" p-id="2374" xmlns:xlink="http://www.w3.org/1999/xlink" width="48" height="48"><defs><style type="text/css"></style></defs><path d="M927.229003 544.109302l-576.143902 0c-17.447371 0-31.722492-14.275121-31.722492-31.722492l0 0c0-17.447371 14.275121-31.722492 31.722492-31.722492l576.143902 0c17.447371 0 31.722492 14.275121 31.722492 31.722492l0 0C958.951495 529.83418 944.676373 544.109302 927.229003 544.109302z" p-id="2375" fill="#8a8a8a"></path><path d="M905.896138 534.429849l-180.137707-171.403788c-12.639878-12.026918-13.141298-32.208563-1.11438-44.848441l0 0c12.026918-12.639878 32.208563-13.141298 44.848441-1.11438l180.137707 171.402765c12.639878 12.026918 13.141298 32.209586 1.11438 44.848441l0 0C938.717661 545.955346 918.536017 546.456766 905.896138 534.429849z" p-id="2376" fill="#8a8a8a"></path><path d="M948.978353 534.99676l-180.220594 171.314761c-12.646018 12.020778-32.827663 11.509125-44.847417-1.13587l0 0c-12.020778-12.644995-11.509125-32.827663 1.13587-44.848441l180.220594-171.314761c12.646018-12.020778 32.827663-11.510148 44.847417 1.13587l0 0C962.136024 502.794337 961.624371 522.975982 948.978353 534.99676z" p-id="2377" fill="#8a8a8a"></path><path d="M188.054003 128.258129l50.953486 0c0.00614 0 0.013303 0 0.020466 0l163.728992 0c17.165961 0 31.210839-14.044878 31.210839-31.210839l0 0c0-17.165961-14.044878-31.210839-31.210839-31.210839l-45.732577 0c-3.488451-0.661056-7.080256-1.022283-10.753925-1.022283l-223.703945 0c-31.907711 0-58.014298 26.106588-58.014298 58.014298l0 778.341021c0 31.907711 26.106588 58.014298 58.014298 58.014298l223.703945 0c9.022491 0 17.579377-0.124843 25.214265-1.023306l31.272237 0c17.165961 0 31.210839-14.044878 31.210839-31.210839l0 0c0-17.165961-14.044878-31.210839-31.210839-31.210839l-163.728992 0c-0.032746 0-0.063445 0.002047-0.096191 0.002047l-50.877761 0c-31.907711 0-58.014298-50.667983-58.014298-82.575694l0-626.89375C130.040728 154.364717 156.146293 128.258129 188.054003 128.258129z" p-id="2378" fill="#8a8a8a"></path></svg>