<?xml version="1.0" encoding="UTF-8"?>
<svg width="18px" height="19px" viewBox="0 0 18 19" version="1.1" xmlns="http://www.w3.org/2000/svg" xmlns:xlink="http://www.w3.org/1999/xlink">
    <!-- Generator: Sketch 43.1 (39012) - http://www.bohemiancoding.com/sketch -->
    <title>sider_ad</title>
    <desc>Created with Sketch.</desc>
    <defs></defs>
    <g id="后台首页" stroke="none" stroke-width="1" fill="none" fill-rule="evenodd">
        <g id="广告-(2)" transform="translate(0.000000, 0.360000)" fill-rule="nonzero" fill="#FFFFFF">
            <path d="M6.03250424,6.75856902 L5.48237757,10.0270386 L6.60422623,10.0270386 L6.05409956,6.75856902 L6.03250424,6.75856902 Z M8.99835295,0.0191176618 C4.03377211,0.0191176618 0.00916005784,4.04370923 0.00916005784,9.00829007 C0.00916005784,13.9728709 4.03375163,17.9974625 8.99835295,17.9974625 C13.9629543,17.9974625 17.9875253,13.9728914 17.9875253,9.00829005 C17.9875253,4.04368873 13.9629338,0.0191176618 8.99835295,0.0191176618 Z M7.0464789,12.885587 L6.84152854,11.5371927 L5.24505476,11.5371927 L5.0401044,12.885587 L2.93663307,12.885587 L4.78120679,5.18364957 L7.30537651,5.18364957 L9.18232268,12.885587 L7.0464789,12.885587 Z M14.6585316,10.4854775 C14.6224711,10.9493255 14.5236942,11.3592262 14.3618934,11.7152002 C14.2000927,12.0711741 13.9573813,12.3553345 13.6337593,12.5673946 C13.3101578,12.779598 12.857087,12.8856075 12.2745878,12.8856075 L9.3620922,12.8856075 L9.3620922,5.18364957 L12.2745878,5.18364957 C12.857087,5.18364957 13.3101373,5.28984348 13.6337593,5.50186252 C13.9573608,5.71406594 14.2000722,5.99808294 14.3618934,6.3540569 C14.5236942,6.71003087 14.6224711,7.1199316 14.6585316,7.58377956 C14.6944281,8.04760705 14.7124583,8.53134972 14.7124583,9.0346183 C14.7124583,9.53805077 14.6944281,10.0216295 14.6585316,10.4854775 Z M12.4957244,7.04981859 C12.4345446,6.8772202 12.3464014,6.76395761 12.2314382,6.71003085 C12.1163111,6.65610409 11.9617635,6.62912023 11.7675903,6.62912023 L11.3684667,6.62912023 L11.3684667,11.4401368 L11.7675903,11.4401368 C11.9617635,11.4401368 12.1163111,11.4131735 12.2314382,11.3592467 C12.3463809,11.3053199 12.4345446,11.1920574 12.4957244,11.019459 C12.5567403,10.8468811 12.5963454,10.6024896 12.6143756,10.2859362 C12.6322419,9.96958778 12.641339,9.55241351 12.641339,9.03463879 C12.641339,8.51688455 12.6322419,8.09989468 12.6143756,7.78336182 C12.5963453,7.46697238 12.5567403,7.22239651 12.4957244,7.04981859 Z" id="Shape"></path>
        </g>
    </g>
</svg>