<?xml version="1.0" encoding="UTF-8"?>
<svg width="20px" height="17px" viewBox="0 0 20 17" version="1.1" xmlns="http://www.w3.org/2000/svg" xmlns:xlink="http://www.w3.org/1999/xlink">
    <!-- Generator: Sketch 43.1 (39012) - http://www.bohemiancoding.com/sketch -->
    <title>sider_wechat</title>
    <desc>Created with Sketch.</desc>
    <defs></defs>
    <g id="后台首页" stroke="none" stroke-width="1" fill="none" fill-rule="evenodd">
        <g id="微信-(1)" fill-rule="nonzero" fill="#FFFFFF">
            <path d="M13.5366934,5.0505482 C13.7660018,5.0505482 13.9924521,5.06776821 14.217727,5.0934922 C13.6058616,2.18067371 10.5592575,0.016819268 7.08141806,0.016819268 C3.19361712,0.016819268 0.00856130631,2.72537698 0.00856130631,6.16475999 C0.00856130631,8.15007767 1.06811845,9.78034767 2.83906385,11.044781 L2.13170903,13.219448 L4.60367097,11.9521172 C5.48886709,12.1312429 6.19848065,12.3150328 7.081395,12.3150328 C7.30323568,12.3150328 7.52339381,12.3039376 7.74182331,12.2864113 C7.60344083,11.8030735 7.52339381,11.2969327 7.52339381,10.7718522 C7.52343991,7.6135486 10.1767004,5.0505482 13.5366934,5.0505482 Z M9.73350309,3.09062472 C10.2659207,3.09062472 10.6186992,3.44859344 10.6186992,3.99268421 C10.6186992,4.53448999 10.2658976,4.89738207 9.73350309,4.89738207 C9.20341336,4.89738207 8.6716411,4.53446644 8.6716411,3.99268421 C8.67166417,3.44859344 9.20343642,3.09062472 9.73350309,3.09062472 Z M4.78384018,4.89740562 C4.25372741,4.89740562 3.71852095,4.53448999 3.71852095,3.99270776 C3.71852095,3.44861699 4.25375045,3.09064827 4.78384018,3.09064827 C5.31390685,3.09064827 5.66673146,3.44861699 5.66673146,3.99270776 C5.66673146,4.53448999 5.31390685,4.89740562 4.78384018,4.89740562 Z" id="Shape"></path>
            <path d="M19.9913926,10.6847864 C19.9913926,7.79474728 17.1620655,5.43888158 13.9838781,5.43888158 C10.6187223,5.43888158 7.96831975,7.79474728 7.96831975,10.6847864 C7.96831975,13.5800551 10.6187223,15.9306205 13.9838781,15.9306205 C14.6883519,15.9306205 15.3991409,15.7488329 16.1064727,15.5677049 L18.0461092,16.6535779 L17.5142909,14.8471032 C18.9341403,13.7585683 19.9913926,12.3150328 19.9913926,10.6847864 Z M12.033939,9.78034765 C11.6817136,9.78034765 11.326031,9.42240249 11.326031,9.05713117 C11.326031,8.69683034 11.6817136,8.33417383 12.033939,8.33417383 C12.5686153,8.33417383 12.9191351,8.69685389 12.9191351,9.05713117 C12.9191351,9.42240249 12.5686153,9.78034765 12.033939,9.78034765 Z M15.9240448,9.78034765 C15.5740781,9.78034765 15.2212996,9.42240249 15.2212996,9.05713117 C15.2212996,8.69683034 15.5741012,8.33417383 15.9240448,8.33417383 C16.4541345,8.33417383 16.8091948,8.69685389 16.8091948,9.05713117 C16.8092178,9.42240249 16.4541345,9.78034765 15.9240448,9.78034765 Z" id="Shape"></path>
        </g>
    </g>
</svg>