<?xml version="1.0" encoding="UTF-8"?>
<svg width="15px" height="17px" viewBox="0 0 15 17" version="1.1" xmlns="http://www.w3.org/2000/svg" xmlns:xlink="http://www.w3.org/1999/xlink">
    <!-- Generator: Sketch 43.1 (39012) - http://www.bohemiancoding.com/sketch -->
    <title>sider_info</title>
    <desc>Created with Sketch.</desc>
    <defs></defs>
    <g id="后台首页" stroke="none" stroke-width="1" fill="none" fill-rule="evenodd">
        <g id="新闻" fill-rule="nonzero" fill="#FFFFFF">
            <path d="M14.25,16.512605 L0.75,16.512605 C0.335689655,16.512605 0,16.1911253 0,15.7948227 L0,0.7177823 C0,0.321479779 0.335689655,0 0.75,0 L14.25,0 C14.6643103,0 15,0.321479779 15,0.7177823 L15,15.7943067 C15,16.1911253 14.6643103,16.512605 14.25,16.512605 Z M13.4498276,2.25397059 C13.4498276,1.85766807 13.1141379,1.53618829 12.6998276,1.53618829 L2.27275862,1.53618829 C1.85844828,1.53618829 1.52275862,1.85766807 1.52275862,2.25397059 L1.52275862,14.2581184 C1.52275862,14.654421 1.85844828,14.9759007 2.27275862,14.9759007 L12.6998276,14.9759007 C13.1141379,14.9759007 13.4498276,14.654421 13.4498276,14.2581184 L13.4498276,2.25397059 Z M11.3146552,3.86343356 C11.3508621,3.87685005 11.457931,3.90781119 11.6358621,3.95631696 C11.892931,4.02494748 12.0724138,4.08119354 12.1743103,4.12453913 C12.2756897,4.16840074 12.3558621,4.23187106 12.4137931,4.31495011 C12.4717241,4.39802915 12.5006897,4.50174895 12.5006897,4.62559349 C12.5006897,4.74634191 12.4655172,4.86038209 12.3946552,4.967198 C12.3237931,5.07401392 12.2218966,5.15657694 12.0884483,5.21488708 C11.955,5.27319722 11.8039655,5.30261029 11.6358621,5.30261029 C11.357069,5.30261029 11.1444828,5.24481618 10.9986207,5.12922794 C10.8522414,5.01363971 10.7591379,4.84232143 10.7187931,4.61527311 L11.0782759,4.55902705 C11.0984483,4.70299632 11.1548276,4.81290835 11.2468966,4.88979517 C11.3389655,4.96616597 11.4682759,5.00486738 11.6337931,5.00486738 C11.8008621,5.00486738 11.925,4.97081014 12.0056897,4.90321166 C12.0863793,4.83509716 12.1267241,4.75563025 12.1267241,4.66429491 C12.1267241,4.5822479 12.0910345,4.51774554 12.0196552,4.47078782 C11.97,4.43827862 11.8458621,4.39751313 11.6477586,4.34797532 C11.3808621,4.28089286 11.1962069,4.22258272 11.0932759,4.17356092 C10.9903448,4.12453913 10.9122414,4.05642463 10.8589655,3.96973346 C10.8056897,3.88304228 10.7793103,3.78757878 10.7793103,3.68231092 C10.7793103,3.58684743 10.8010345,3.49860819 10.845,3.41707721 C10.8889655,3.33554622 10.9484483,3.26846376 11.0239655,3.21428178 C11.0803448,3.17248424 11.1574138,3.13739496 11.2551724,3.1084979 C11.352931,3.07960084 11.4574138,3.06515231 11.5691379,3.06515231 C11.7377586,3.06515231 11.8851724,3.0894052 12.0124138,3.13791098 C12.1396552,3.18641675 12.2337931,3.25195116 12.2943103,3.33451418 C12.3548276,3.41707721 12.3967241,3.52750525 12.4194828,3.66631434 L12.0636207,3.71482012 C12.0475862,3.60439207 12.0005172,3.51873293 11.9234483,3.45681066 C11.8458621,3.39488839 11.7367241,3.36392726 11.595,3.36392726 C11.427931,3.36392726 11.3089655,3.39127626 11.2375862,3.44649028 C11.1662069,3.50170431 11.1305172,3.56620667 11.1305172,3.63999737 C11.1305172,3.68695509 11.1455172,3.72926864 11.175,3.76693803 C11.2044828,3.80563944 11.2510345,3.83814863 11.3146552,3.86343356 Z M9.39517241,5.25410452 L9.0537931,3.97231355 L8.97103448,3.60748818 L8.53655172,5.25410452 L8.15689655,5.25410452 L7.5,3.11365809 L7.87603448,3.11365809 L8.21741379,4.34952337 L8.34465517,4.80929622 C8.34982759,4.78659139 8.38706897,4.639526 8.45586207,4.36810005 L8.79724138,3.11417411 L9.1712069,3.11417411 L9.49241379,4.3557156 L9.59948276,4.76491859 L9.72258621,4.35158745 L10.0903448,3.11417411 L10.4441379,3.11417411 L9.77327586,5.25462054 L9.39517241,5.25462054 L9.39517241,5.25410452 Z M5.60068966,4.27676471 C5.61413793,4.51206933 5.68086207,4.69215993 5.80086207,4.8170365 C5.92086207,4.94191308 6.07034483,5.00435137 6.24931034,5.00435137 C6.38275862,5.00435137 6.49655172,4.96926208 6.59068966,4.89959953 C6.68482759,4.82993697 6.75982759,4.71796087 6.81517241,4.56521928 L7.1912069,4.61166098 C7.13172414,4.83045299 7.02206897,5.00073923 6.86172414,5.12148766 C6.70137931,5.24223608 6.49655172,5.30312631 6.24724138,5.30312631 C5.93327586,5.30312631 5.68448276,5.20663078 5.50086207,5.01363971 C5.31672414,4.82064863 5.22517241,4.55025473 5.22517241,4.20245798 C5.22517241,3.84227679 5.31827586,3.56259454 5.50396552,3.36392726 C5.68965517,3.16474396 5.93068966,3.06515231 6.22706897,3.06515231 C6.51413793,3.06515231 6.74844828,3.16267988 6.93,3.35721901 C7.11206897,3.55227416 7.20258621,3.8262802 7.20258621,4.17975315 C7.20258621,4.20142595 7.20206897,4.23341912 7.20051724,4.27676471 L5.60068966,4.27676471 Z M6.68172414,3.57291492 C6.56586207,3.43307379 6.41586207,3.36341124 6.2312069,3.36341124 C6.06413793,3.36341124 5.92396552,3.41914128 5.81017241,3.53060137 C5.69637931,3.64206145 5.63327586,3.79119091 5.62137931,3.97798976 L6.81931034,3.97798976 C6.80275862,3.79841518 6.75672414,3.66321822 6.68172414,3.57291492 Z M4.3112069,3.95218881 C4.3112069,3.80460741 4.29724138,3.69366334 4.2687931,3.62038866 C4.24034483,3.54711397 4.19017241,3.48880383 4.11827586,3.44494223 C4.04637931,3.40159664 3.96206897,3.37940783 3.86482759,3.37940783 C3.71017241,3.37940783 3.5762069,3.42842962 3.46396552,3.52647321 C3.35172414,3.62451681 3.29534483,3.81079963 3.29534483,4.08480567 L3.29534483,5.25410452 L2.93172414,5.25410452 L2.93172414,3.11365809 L3.25862069,3.11365809 L3.25862069,3.41810924 C3.41637931,3.18280462 3.64396552,3.06515231 3.94189655,3.06515231 C4.0712069,3.06515231 4.19017241,3.08837316 4.29827586,3.13481486 C4.40689655,3.18125657 4.48758621,3.2421468 4.54189655,3.31696954 C4.59568966,3.3923083 4.63344828,3.48157957 4.65517241,3.58529937 C4.66862069,3.65238183 4.67534483,3.77003414 4.67534483,3.9382563 L4.67534483,5.25462054 L4.3112069,5.25462054 L4.3112069,3.95218881 Z M3.45258621,6.19583902 L11.5122414,6.19583902 C11.7191379,6.19583902 11.8872414,6.3563209 11.8872414,6.55498818 L11.8872414,7.38319853 C11.8872414,7.58134979 11.7191379,7.74234769 11.5122414,7.74234769 L3.45258621,7.74234769 C3.24568966,7.74234769 3.07758621,7.58186581 3.07758621,7.38319853 L3.07758621,6.55498818 C3.07810345,6.35683692 3.24568966,6.19583902 3.45258621,6.19583902 Z M3.45258621,8.76509716 L11.5122414,8.76509716 C11.7191379,8.76509716 11.8872414,8.92557904 11.8872414,9.12424632 L11.8872414,9.95245667 C11.8872414,10.1506079 11.7191379,10.3116058 11.5122414,10.3116058 L3.45258621,10.3116058 C3.24568966,10.3116058 3.07758621,10.1506079 3.07758621,9.95245667 L3.07758621,9.12424632 C3.07810345,8.92557904 3.24568966,8.76509716 3.45258621,8.76509716 Z M3.45258621,11.8570825 L11.5122414,11.8570825 C11.7191379,11.8570825 11.8872414,12.0180804 11.8872414,12.2162316 L11.8872414,13.044442 C11.8872414,13.2425932 11.7191379,13.4035911 11.5122414,13.4035911 L3.45258621,13.4035911 C3.24568966,13.4035911 3.07758621,13.2431092 3.07758621,13.044442 L3.07758621,12.2162316 C3.07810345,12.0175643 3.24568966,11.8570825 3.45258621,11.8570825 Z" id="Shape"></path>
        </g>
    </g>
</svg>