<?xml version="1.0" encoding="UTF-8"?>
<svg width="17px" height="17px" viewBox="0 0 17 17" version="1.1" xmlns="http://www.w3.org/2000/svg" xmlns:xlink="http://www.w3.org/1999/xlink">
    <!-- Generator: Sketch 43.1 (39012) - http://www.bohemiancoding.com/sketch -->
    <title>sider_user</title>
    <desc>Created with Sketch.</desc>
    <defs></defs>
    <g id="后台首页" stroke="none" stroke-width="1" fill="none" fill-rule="evenodd">
        <g id="用户_1" fill-rule="nonzero" fill="#FFFFFF">
            <path d="M16.9515038,16.0770385 L15.0280394,16.0770385 C15.0280394,15.7713425 14.4791231,14.5046314 13.1203931,13.1835153 C12.2817267,12.3680186 10.5630494,11.0000062 8.47573493,11.0000062 C6.38842049,11.0000062 4.66977713,12.3680186 3.83107672,13.1835153 C2.47236374,14.5046485 1.9234644,15.7713595 1.9234644,16.0770385 L0,16.0770385 C0,15.3665636 0.395589061,14.554207 0.727430373,13.9978344 C1.17980856,13.239388 1.79063962,12.4771019 2.49395243,11.7932493 C3.5414963,10.7746891 5.71158437,9.0659962 8.47571796,9.0659962 C11.2398855,9.0659962 13.4099736,10.7746891 14.4574835,11.7932493 C15.1607963,12.477119 15.7716104,13.239388 16.2240055,13.9978344 C16.5558638,14.554207 16.9514189,15.3665294 16.9514189,16.0770385 L16.9515038,16.0770385 Z M8.47573493,11.0000404 C7.01461143,11.0000404 5.64092892,10.4279845 4.60777752,9.38911623 C3.57459217,8.35028212 3.0055977,6.96911213 3.0055977,5.50002018 C3.0055977,4.03092823 3.5745752,2.64972411 4.60777752,1.61092413 C5.64097984,0.572124152 7.01464537,0 8.47573493,0 C9.93682449,0 11.3105409,0.572055889 12.3436923,1.61092413 C13.3768777,2.64975824 13.9458722,4.03092823 13.9458722,5.50002018 C13.9458722,6.96911213 13.3768947,8.35031625 12.3436923,9.38911623 C11.310507,10.4279503 9.93684146,11.0000404 8.47573493,11.0000404 Z M8.47573493,1.93397589 C6.52007418,1.93397589 4.9290621,3.53367085 4.9290621,5.50002018 C4.9290621,7.4663695 6.52009116,9.06606447 8.47573493,9.06606447 C10.4313787,9.06606447 12.0224247,7.4663695 12.0224247,5.50002018 C12.0224247,3.53367085 10.4313957,1.93397589 8.47573493,1.93397589 L8.47573493,1.93397589 Z" id="Shape"></path>
        </g>
    </g>
</svg>