<?xml version="1.0" standalone="no"?><!DOCTYPE svg PUBLIC "-//W3C//DTD SVG 1.1//EN" "http://www.w3.org/Graphics/SVG/1.1/DTD/svg11.dtd"><svg t="1524886838694" class="icon" style="" viewBox="0 0 1024 1024" version="1.1" xmlns="http://www.w3.org/2000/svg" p-id="2545" data-spm-anchor-id="a313x.7781069.0.i15" xmlns:xlink="http://www.w3.org/1999/xlink" width="270" height="270"><defs><style type="text/css"></style></defs><path d="M511.998 65.828c-246.41 0-446.17 199.761-446.17 446.17 0 246.414 199.76 446.174 446.17 446.174 246.414 0 446.174-199.76 446.174-446.174C958.172 265.589 758.412 65.828 511.998 65.828L511.998 65.828zM513.533 920.019c-224.493 0-406.483-181.99-406.483-406.487 0-224.493 181.99-406.483 406.483-406.483 224.497 0 406.486 181.99 406.486 406.483C920.019 738.03 738.029 920.019 513.533 920.019L513.533 920.019zM228.668 619.865l79.414-206.773 29.472 0 84.629 206.773L391.02 619.865l-24.126-62.623-86.455 0-22.702 62.623L228.668 619.865zM288.337 534.956l70.094 0-21.575-57.263C330.27 460.3 325.388 446 322.188 434.815c-2.638 13.257-6.341 26.418-11.149 39.492L288.337 534.956zM444.052 619.865 444.052 413.092l77.991 0c13.739 0 24.225 0.652 31.46 1.975 10.155 1.693 18.666 4.906 25.522 9.666 6.869 4.747 12.4 11.406 16.583 19.955 4.181 8.548 6.28 17.969 6.28 28.208 0 17.575-5.605 32.467-16.792 44.646-11.186 12.178-31.409 18.262-60.649 18.262l-53.034 0 0 84.062L444.052 619.866zM471.415 511.396l53.451 0c17.688 0 30.232-3.288 37.665-9.862 7.432-6.587 11.149-15.845 11.149-27.792 0-8.658-2.194-16.054-6.561-22.212-4.38-6.169-10.131-10.229-17.281-12.203-4.611-1.226-13.124-1.838-25.537-1.838l-52.885 0 0 73.908L471.415 511.397zM636.721 619.865 636.721 413.092l78.004 0c13.725 0 24.21 0.652 31.446 1.975 10.155 1.693 18.667 4.906 25.536 9.666 6.854 4.747 12.387 11.406 16.57 19.955 4.182 8.548 6.267 17.969 6.267 28.208 0 17.575-5.592 32.467-16.777 44.646-11.186 12.178-31.413 18.262-60.65 18.262l-53.034 0 0 84.062L636.721 619.866zM664.083 511.396l53.461 0c17.674 0 30.222-3.288 37.652-9.862 7.435-6.587 11.137-15.845 11.137-27.792 0-8.658-2.184-16.054-6.55-22.212-4.377-6.169-10.128-10.229-17.278-12.203-4.613-1.226-13.112-1.838-25.523-1.838l-52.898 0L664.084 511.396z" p-id="2546" fill="#ffffff" data-spm-anchor-id="a313x.7781069.0.i16" class="selected"></path></svg>