<?xml version="1.0" encoding="UTF-8"?>
<svg width="16px" height="16px" viewBox="0 0 16 16" version="1.1" xmlns="http://www.w3.org/2000/svg" xmlns:xlink="http://www.w3.org/1999/xlink">
    <!-- Generator: Sketch 43.1 (39012) - http://www.bohemiancoding.com/sketch -->
    <title>sider_comment</title>
    <desc>Created with Sketch.</desc>
    <defs></defs>
    <g id="后台首页" stroke="none" stroke-width="1" fill="none" fill-rule="evenodd">
        <g id="评论_3" fill-rule="nonzero" fill="#FFFFFF">
            <path d="M14.3942569,0 L1.59882135,0 C0.715799022,0 0,0.715799022 0,1.59866119 L0,9.59312829 C0,10.4760105 0.715799022,11.1917895 1.59882135,11.1917895 L4.39817509,11.1917895 L7.99652911,15.9882735 L11.5948831,11.1917895 L14.3942569,11.1917895 C15.2771391,11.1917895 15.9930782,10.4759905 15.9930782,9.59312829 L15.9930782,1.59866119 C15.9930983,0.715799022 15.2771391,0 14.3942569,0 Z M3.60351906,6.17603128 C2.94013122,6.17603128 2.40234604,5.6382461 2.40234604,4.97485826 C2.40234604,4.31147042 2.94013122,3.77368524 3.60351906,3.77368524 C4.2669069,3.77368524 4.80469208,4.31147042 4.80469208,4.97485826 C4.80469208,5.6382461 4.2669069,6.17603128 3.60351906,6.17603128 Z M8.00782014,6.17603128 C7.3444323,6.17603128 6.80664712,5.6382461 6.80664712,4.97485826 C6.80664712,4.31147042 7.3444323,3.77368524 8.00782014,3.77368524 C8.67120798,3.77368524 9.20899316,4.31147042 9.20899316,4.97485826 C9.20899316,5.6382461 8.67120798,6.17603128 8.00782014,6.17603128 Z M12.4121212,6.17603128 C11.7487334,6.17603128 11.2109482,5.6382461 11.2109482,4.97485826 C11.2109482,4.31147042 11.7487334,3.77368524 12.4121212,3.77368524 C13.0755091,3.77368524 13.6132942,4.31147042 13.6132942,4.97485826 C13.6132942,5.6382461 13.0755091,6.17603128 12.4121212,6.17603128 Z" id="Shape"></path>
        </g>
    </g>
</svg>